<?xml version="1.0" encoding="UTF-8" standalone="no"?>
<svg
   width="40"
   height="40"
   viewBox="0 0 40 40"
   fill="none"
   version="1.1"
   id="svg13"
   sodipodi:docname="pluginIcon.svg"
   inkscape:version="1.2.2 (b0a8486541, 2022-12-01)"
   xmlns:inkscape="http://www.inkscape.org/namespaces/inkscape"
   xmlns:sodipodi="http://sodipodi.sourceforge.net/DTD/sodipodi-0.dtd"
   xmlns="http://www.w3.org/2000/svg"
   xmlns:svg="http://www.w3.org/2000/svg">
  <sodipodi:namedview
     id="namedview15"
     pagecolor="#ffffff"
     bordercolor="#000000"
     borderopacity="0.25"
     inkscape:showpageshadow="2"
     inkscape:pageopacity="0.0"
     inkscape:pagecheckerboard="0"
     inkscape:deskcolor="#d1d1d1"
     showgrid="true"
     inkscape:zoom="16"
     inkscape:cx="32.71875"
     inkscape:cy="13.4375"
     inkscape:window-width="1920"
     inkscape:window-height="1015"
     inkscape:window-x="0"
     inkscape:window-y="0"
     inkscape:window-maximized="1"
     inkscape:current-layer="svg13">
    <inkscape:grid
       type="xygrid"
       id="grid175" />
  </sodipodi:namedview>
  <defs
     id="defs11">
    <linearGradient
       id="paint0_linear"
       x1="2.94192"
       y1="4.89955"
       x2="37.7772"
       y2="39.7345"
       gradientUnits="userSpaceOnUse">
      <stop
         offset="0.15937"
         stop-color="#3BEA62"
         id="stop4" />
      <stop
         offset="0.5404"
         stop-color="#3C99CC"
         id="stop6" />
      <stop
         offset="0.93739"
         stop-color="#6B57FF"
         id="stop8" />
    </linearGradient>
  </defs>
  <g
     aria-label="/**  *   */"
     id="text369"
     style="font-size:9.33333px;font-family:'JetBrains Mono';-inkscape-font-specification:'JetBrains Mono';fill:#b3b3b3"
     transform="translate(-1.8977509)">
    <path
       d="M 3.9893687,12.785595 7.3027009,4.0122643 H 8.1893672 L 4.876035,12.785595 Z M 10.541366,9.5842624 9.8973667,9.1269292 10.504033,8.2589295 q 0.121333,-0.168 0.336,-0.4106665 0.205333,-0.2426666 0.392,-0.4293332 -0.261333,-0.037333 -0.550667,-0.112 -0.289333,-0.074667 -0.457333,-0.1399999 L 9.2253669,6.7935967 9.4867001,6.0562636 10.4947,6.4295968 q 0.158666,0.056 0.42,0.1773333 0.261333,0.1213332 0.475999,0.2519999 -0.04667,-0.2426666 -0.06533,-0.4946665 -0.028,-0.2613333 -0.028,-0.4386665 V 4.7589307 h 0.784 V 5.925597 q 0,0.1773332 -0.028,0.4386665 -0.028,0.2519999 -0.07467,0.4946665 0.224,-0.1306667 0.485333,-0.2519999 0.252,-0.1213333 0.42,-0.1773333 l 1.008,-0.3733332 0.261333,0.7373331 -0.998666,0.3733332 q -0.168,0.065333 -0.457333,0.1399999 -0.289334,0.074667 -0.550667,0.112 0.186667,0.1866666 0.401333,0.4386665 0.214667,0.2426666 0.326667,0.4013332 l 0.606666,0.8679997 -0.643999,0.4573332 -0.606667,-0.8773331 q -0.112,-0.1586666 -0.270666,-0.4386665 -0.158667,-0.2799999 -0.270667,-0.5226665 -0.112,0.2426666 -0.270667,0.5226665 -0.158666,0.2706666 -0.270666,0.4386665 z m 5.599999,0 -0.644,-0.4573332 0.606666,-0.8679997 q 0.121334,-0.168 0.326667,-0.4106665 0.214666,-0.2426666 0.401333,-0.4293332 -0.261333,-0.037333 -0.550667,-0.112 -0.289333,-0.074667 -0.457333,-0.1399999 l -0.998666,-0.3733332 0.261333,-0.7373331 1.008,0.3733332 q 0.158667,0.056 0.42,0.1773333 0.261333,0.1213332 0.476,0.2519999 -0.04667,-0.2426666 -0.07467,-0.4946665 -0.01867,-0.2613333 -0.01867,-0.4386665 V 4.7589307 h 0.784 V 5.925597 q 0,0.1773332 -0.028,0.4386665 -0.028,0.2519999 -0.07467,0.4946665 0.224,-0.1306667 0.476,-0.2519999 0.261333,-0.1213333 0.429333,-0.1773333 l 1.008,-0.3733332 0.261333,0.7373331 -0.998666,0.3733332 q -0.168,0.065333 -0.457333,0.1399999 -0.289333,0.074667 -0.550667,0.112 0.186667,0.1866666 0.401334,0.4386665 0.214666,0.2426666 0.326666,0.4013332 l 0.606667,0.8679997 -0.644,0.4573332 -0.606667,-0.8773331 q -0.112,-0.1586666 -0.270666,-0.4386665 -0.158667,-0.2799999 -0.270667,-0.5226665 -0.112,0.2426666 -0.270666,0.5226665 -0.158667,0.2706666 -0.270667,0.4386665 z"
       id="path503" />
    <path
       d="m 10.541363,22.464258 -0.6440001,-0.457333 0.6066661,-0.868 q 0.121334,-0.168 0.326667,-0.410666 0.214667,-0.242667 0.401333,-0.429334 -0.261333,-0.03733 -0.550666,-0.112 -0.289334,-0.07467 -0.457333,-0.14 l -0.9986668,-0.373333 0.2613332,-0.737333 1.0079996,0.373333 q 0.158667,0.056 0.42,0.177334 0.261333,0.121333 0.476,0.252 -0.04667,-0.242667 -0.07467,-0.494667 -0.01867,-0.261333 -0.01867,-0.438666 v -1.166667 h 0.784 v 1.166667 q 0,0.177333 -0.028,0.438666 -0.028,0.252 -0.07467,0.494667 0.223999,-0.130667 0.475999,-0.252 0.261334,-0.121334 0.429334,-0.177334 l 1.007999,-0.373333 0.261333,0.737333 -0.998666,0.373333 q -0.168,0.06533 -0.457333,0.14 -0.289333,0.07467 -0.550666,0.112 0.186666,0.186667 0.401333,0.438667 0.214666,0.242666 0.326666,0.401333 l 0.606667,0.868 -0.644,0.457333 -0.606667,-0.877333 q -0.111999,-0.158667 -0.270666,-0.438667 -0.158667,-0.279999 -0.270667,-0.522666 -0.112,0.242667 -0.270666,0.522666 -0.158667,0.270667 -0.270667,0.438667 z"
       id="path505" />
    <path
       d="m 10.541366,34.877587 -0.6439993,-0.457333 0.6066663,-0.868 q 0.121333,-0.168 0.336,-0.410666 0.205333,-0.242667 0.392,-0.429334 -0.261333,-0.03733 -0.550667,-0.111999 -0.289333,-0.07467 -0.457333,-0.14 L 9.2253669,32.086921 9.4867001,31.349588 10.4947,31.722921 q 0.158666,0.056 0.42,0.177334 0.261333,0.121333 0.475999,0.252 -0.04667,-0.242667 -0.06533,-0.494667 -0.028,-0.261333 -0.028,-0.438666 v -1.166667 h 0.784 v 1.166667 q 0,0.177333 -0.028,0.438666 -0.028,0.252 -0.07467,0.494667 0.224,-0.130667 0.485333,-0.252 0.252,-0.121334 0.42,-0.177334 l 1.008,-0.373333 0.261333,0.737333 -0.998666,0.373334 q -0.168,0.06533 -0.457333,0.14 -0.289334,0.07467 -0.550667,0.111999 0.186667,0.186667 0.401333,0.438667 0.214667,0.242667 0.326667,0.401333 l 0.606666,0.868 -0.643999,0.457333 -0.606667,-0.877333 q -0.112,-0.158667 -0.270666,-0.438666 -0.158667,-0.28 -0.270667,-0.522667 -0.112,0.242667 -0.270667,0.522667 -0.158666,0.270666 -0.270666,0.438666 z m 4.647999,1.241333 3.313332,-8.77333 h 0.886666 l -3.313332,8.77333 z"
       id="path507" />
  </g>
  <path
     sodipodi:type="star"
     style="fill:#00aa00"
     id="path896"
     inkscape:flatsided="true"
     sodipodi:sides="3"
     sodipodi:cx="25.50079"
     sodipodi:cy="16.943825"
     sodipodi:r1="8.8469582"
     sodipodi:r2="4.4234791"
     sodipodi:arg1="0"
     sodipodi:arg2="1.0471976"
     inkscape:rounded="0"
     inkscape:randomized="0"
     d="m 34.347748,16.943825 -13.270437,7.66169 0,-15.3233807 z"
     inkscape:transform-center-x="-2.6646883"
     transform="matrix(1.2047933,0,0,1.2047933,-3.3507563,-0.3909877)" />
</svg>
