<?xml version="1.0" encoding="UTF-8" standalone="no"?>
<svg
   width="40"
   height="40"
   viewBox="0 0 40 40"
   fill="none"
   version="1.1"
   id="svg13"
   sodipodi:docname="pluginIcon.svg"
   inkscape:version="1.2.2 (b0a8486541, 2022-12-01)"
   xmlns:inkscape="http://www.inkscape.org/namespaces/inkscape"
   xmlns:sodipodi="http://sodipodi.sourceforge.net/DTD/sodipodi-0.dtd"
   xmlns="http://www.w3.org/2000/svg"
   xmlns:svg="http://www.w3.org/2000/svg">
  <sodipodi:namedview
     id="namedview15"
     pagecolor="#ffffff"
     bordercolor="#000000"
     borderopacity="0.25"
     inkscape:showpageshadow="2"
     inkscape:pageopacity="0.0"
     inkscape:pagecheckerboard="0"
     inkscape:deskcolor="#d1d1d1"
     showgrid="true"
     inkscape:zoom="90.509668"
     inkscape:cx="13.042806"
     inkscape:cy="31.167941"
     inkscape:window-width="1920"
     inkscape:window-height="1015"
     inkscape:window-x="0"
     inkscape:window-y="0"
     inkscape:window-maximized="1"
     inkscape:current-layer="svg13">
    <inkscape:grid
       type="xygrid"
       id="grid175" />
  </sodipodi:namedview>
  <defs
     id="defs11">
    <linearGradient
       id="paint0_linear"
       x1="2.94192"
       y1="4.89955"
       x2="37.7772"
       y2="39.7345"
       gradientUnits="userSpaceOnUse">
      <stop
         offset="0.15937"
         stop-color="#3BEA62"
         id="stop4" />
      <stop
         offset="0.5404"
         stop-color="#3C99CC"
         id="stop6" />
      <stop
         offset="0.93739"
         stop-color="#6B57FF"
         id="stop8" />
    </linearGradient>
  </defs>
  <path
     sodipodi:type="star"
     style="fill:#00aa00"
     id="triangle"
     inkscape:flatsided="true"
     sodipodi:sides="3"
     sodipodi:cx="25.50079"
     sodipodi:cy="16.943825"
     sodipodi:r1="8.8469582"
     sodipodi:r2="4.4234791"
     sodipodi:arg1="0"
     sodipodi:arg2="1.0471976"
     inkscape:rounded="0"
     inkscape:randomized="0"
     d="m 34.347748,16.943825 -13.270437,7.66169 0,-15.3233807 z"
     inkscape:transform-center-x="-2.6646883"
     transform="matrix(1.2047933,0,0,1.2047933,-3.3507563,-0.3909877)"
     inkscape:label="triangle" />
  <path
     style="fill:#b3b3b3;stroke-width:1.2;stroke-dasharray:none"
     d="m 7.5997185,31.353041 1.9002583,0.803214 -0.084269,-2.099386 0.7776342,9.8e-5 -0.100961,2.107161 1.912073,-0.80763 0.257974,0.739793 -1.997472,0.621491 1.330327,1.707333 -0.646657,0.45607 -1.1441098,-1.83798 -1.1515698,1.83635 L 8.0154502,34.430567 9.3498234,32.722172 7.345161,32.090676 Z"
     id="star-3"
     inkscape:label="star-3" />
  <path
     style="fill:#b3b3b3;stroke-width:1.2;stroke-dasharray:none"
     d="m 7.6019235,6.0584019 1.9002582,0.803214 -0.08427,-2.099386 0.7776353,9.8e-5 -0.100961,2.107161 1.912073,-0.80763 0.257974,0.739793 -1.997472,0.621491 1.330327,1.707333 -0.646657,0.45607 -1.1441103,-1.83798 -1.1515703,1.83635 L 8.0176552,9.1359279 9.3520284,7.4275329 7.347366,6.7960369 Z"
     id="star-1-1"
     inkscape:label="star-1-1" />
  <path
     style="fill:#b3b3b3;stroke-width:1.2;stroke-dasharray:none"
     d="m 13.166705,6.0569934 1.900258,0.803214 -0.08427,-2.099386 0.777635,9.8e-5 -0.100961,2.107161 1.912073,-0.80763 0.257974,0.739793 -1.997472,0.621491 1.330327,1.707333 -0.646657,0.45607 -1.14411,-1.83798 -1.15157,1.83635 -0.637497,-0.448988 1.334374,-1.708395 -2.004663,-0.631496 z"
     id="star-1-2"
     inkscape:label="star-1-2" />
  <path
     style="fill:#b3b3b3;stroke-width:1.2;stroke-dasharray:none"
     d="m 7.5802547,18.937316 1.9002581,0.803214 -0.08427,-2.099386 0.7776342,9.8e-5 -0.100961,2.107161 1.912073,-0.80763 0.257974,0.739793 -1.997472,0.621491 1.330327,1.707333 -0.646657,0.45607 L 9.7850518,20.62748 8.6334816,22.46383 7.9959864,22.014842 9.3303598,20.306447 7.3256972,19.674951 Z"
     id="star-2"
     inkscape:label="star-2" />
  <path
     style="fill:#b3b3b3;stroke-width:1.2;stroke-dasharray:none"
     d="m 2.1009326,12.771192 3.2929585,-8.7400728 0.8870836,0.0091 -3.3156945,8.7262518 z"
     id="slash-start"
     sodipodi:nodetypes="ccccc"
     inkscape:label="slash-start" />
  <path
     style="fill:#b3b3b3;stroke-width:1.2;stroke-dasharray:none"
     d="m 13.297253,36.0881 3.292958,-8.740073 0.887084,0.0091 -3.315695,8.726252 z"
     id="slash-end"
     sodipodi:nodetypes="ccccc"
     inkscape:label="slash-end" />
</svg>
